# Blender 4.5.0
# www.blender.org
mtllib path.mtl
o frame1
v 0.500000 0.000000 0.497701
v 0.500000 0.000000 -0.497701
v -0.500000 0.000000 0.497701
v -0.500000 0.000000 -0.497701
vn -0.0000 1.0000 -0.0000
vt 0.000000 0.000000
vt 1.000000 0.000000
vt 1.000000 1.000000
vt 0.000000 1.000000
s 0
usemtl frame1
f 1/1/1 2/2/1 4/3/1 3/4/1
o frame2
v 0.500000 0.000000 1.504084
v 0.500000 0.000000 0.495916
v -0.500000 0.000000 1.504084
v -0.500000 0.000000 0.495916
vn -0.0000 1.0000 -0.0000
vt 0.000000 0.000000
vt 1.000000 0.000000
vt 1.000000 1.000000
vt 0.000000 1.000000
s 0
usemtl frame2
f 5/5/2 6/6/2 8/7/2 7/8/2
o frame3
v -0.500000 0.000000 1.492457
v -0.500000 0.000000 0.507543
v -1.500000 0.000000 1.492457
v -1.500000 0.000000 0.507543
vn -0.0000 1.0000 -0.0000
vt 0.000000 0.000000
vt 1.000000 0.000000
vt 1.000000 1.000000
vt 0.000000 1.000000
s 0
usemtl frame3
f 9/9/3 10/10/3 12/11/3 11/12/3
o frame4
v -0.502499 0.000000 2.463037
v -0.502499 0.000000 1.487868
v -1.502499 0.000000 2.463037
v -1.502499 0.000000 1.487868
vn -0.0000 1.0000 -0.0000
vt 0.000000 0.000000
vt 1.000000 0.000000
vt 1.000000 1.000000
vt 0.000000 1.000000
s 0
usemtl frame4
f 13/13/4 14/14/4 16/15/4 15/16/4
o frame5
v -1.500000 0.000000 2.487859
v -1.500000 0.000000 1.512141
v -2.500000 0.000000 2.487859
v -2.500000 0.000000 1.512141
vn -0.0000 1.0000 -0.0000
vt 0.000000 0.000000
vt 1.000000 0.000000
vt 1.000000 1.000000
vt 0.000000 1.000000
s 0
usemtl frame5
f 17/17/5 18/18/5 20/19/5 19/20/5
o frame6
v -2.500000 0.000000 2.522596
v -2.500000 0.000000 1.477404
v -3.500000 0.000000 2.522596
v -3.500000 0.000000 1.477404
vn -0.0000 1.0000 -0.0000
vt 0.000000 0.000000
vt 1.000000 0.000000
vt 1.000000 1.000000
vt 0.000000 1.000000
s 0
usemtl frame6
f 21/21/6 22/22/6 24/23/6 23/24/6
o frame7
v -3.500000 0.000000 2.514039
v -3.500000 0.000000 1.485961
v -4.500000 0.000000 2.514039
v -4.500000 0.000000 1.485961
vn -0.0000 1.0000 -0.0000
vt 0.000000 0.000000
vt 1.000000 0.000000
vt 1.000000 1.000000
vt 0.000000 1.000000
s 0
usemtl frame7
f 25/25/7 26/26/7 28/27/7 27/28/7
o frame8
v -4.500000 0.000000 2.507255
v -4.500000 0.000000 1.492746
v -5.500000 0.000000 2.507255
v -5.500000 0.000000 1.492746
vn -0.0000 1.0000 -0.0000
vt 0.000000 0.000000
vt 1.000000 0.000000
vt 1.000000 1.000000
vt 0.000000 1.000000
s 0
usemtl frame8
f 29/29/8 30/30/8 32/31/8 31/32/8
o frame9
v -5.500000 0.000000 2.515808
v -5.500000 0.000000 1.484192
v -6.500000 0.000000 2.515808
v -6.500000 0.000000 1.484192
vn -0.0000 1.0000 -0.0000
vt 0.000000 0.000000
vt 1.000000 0.000000
vt 1.000000 1.000000
vt 0.000000 1.000000
s 0
usemtl frame9
f 33/33/9 34/34/9 36/35/9 35/36/9
o frame10
v -5.500000 0.000000 1.516496
v -5.500000 0.000000 0.483504
v -6.500000 0.000000 1.516496
v -6.500000 0.000000 0.483504
vn -0.0000 1.0000 -0.0000
vt 0.000000 0.000000
vt 1.000000 0.000000
vt 1.000000 1.000000
vt 0.000000 1.000000
s 0
usemtl frame10
f 37/37/10 38/38/10 40/39/10 39/40/10
